<?xml version="1.0" standalone="no"?>
<svg viewBox="0 0 200 200" xmlns="http://www.w3.org/2000/svg">
  <path fill="#F50F15" d="M47.1,-68.4C61.1,-64.3,72.6,-51.3,73.6,-37.1C74.6,-22.9,65.2,-7.5,63.1,9.3C61.1,26.1,66.5,44.2,60.1,52.6C53.7,60.9,35.4,59.5,18.7,64.8C2.1,70.1,-12.8,82.2,-22.3,78.3C-31.9,74.5,-36,54.6,-42.2,40.5C-48.4,26.3,-56.5,17.8,-62.3,6.3C-68,-5.2,-71.3,-19.6,-65.2,-28.5C-59.1,-37.3,-43.7,-40.6,-31.2,-45.4C-18.8,-50.2,-9.4,-56.6,3.6,-62.2C16.5,-67.7,33.1,-72.5,47.1,-68.4Z" transform="translate(100 100)" />
</svg>
